<?xml version="1.0" standalone="no"?><!DOCTYPE svg PUBLIC "-//W3C//DTD SVG 1.1//EN" "http://www.w3.org/Graphics/SVG/1.1/DTD/svg11.dtd"><svg t="1747316015693" class="icon" viewBox="0 0 1024 1024" version="1.1" xmlns="http://www.w3.org/2000/svg" p-id="27460" xmlns:xlink="http://www.w3.org/1999/xlink" width="16" height="16"><path d="M884.13044088 136.39773614H92.79243825s-46.35047126 14.6367188-46.35047127 102.45961676 46.35047126 104.89863905 46.35047127 104.89863905H884.13044088s-39.85287452-17.07703364-39.85287452-103.67977417 39.85287452-103.67848164 39.85287452-103.67848164z" fill="#FCE3C3" p-id="27461"></path><path d="M913.88470324 359.91273737H89.91136742l-2.70399293-0.99654806c-2.32398627-0.85566125-56.92215292-22.09725758-56.92215292-120.06012896 0-98.52900373 55.28838283-117.12218636 57.64339004-117.86539664l2.3743953-0.74967299H913.88470324v32.31349084H96.12589797c-7.39720433 3.86081589-33.52589302 22.05589631-33.52589302 86.30287134 0 64.13581662 26.07827965 84.16630333 33.93045792 88.74189363H913.88470324v32.31349084z" fill="#8a8a8a" p-id="27462"></path><path d="M165.03894106 185.18852223h298.87781713v24.3941005H165.03894106zM337.7015555 230.35631973h445.47249221v29.78399079H337.7015555zM172.49689476 280.07385675h194.83225422v29.78399077H172.49689476z" fill="#ED8F27" p-id="27463"></path><path d="M1005.53481105 388.45071995H214.19680843s-46.35047126 14.6367188-46.35047126 102.45961676 46.35047126 104.89863905 46.35047126 104.89863906h791.33800262s-39.85287452-17.07703364-39.85287453-103.67977419 39.85287452-103.67848164 39.85287453-103.67848163z" fill="#FCE3C3" p-id="27464"></path><path d="M1035.28907342 611.96572118H211.31573758l-2.70399291-0.99654806c-2.32398627-0.85566125-56.92215292-22.09725758-56.92215293-120.06012896 0-98.52900373 55.28838283-117.12218636 57.64339006-117.86539663l2.37439531-0.749673h823.58298885v32.31349084H217.5289756c-7.39720433 3.86081589-33.52589302 22.05589631-33.525893 86.30287134 0 64.13581662 26.07827965 84.16630333 33.9304579 88.74189363h817.35553292v32.31349084z" fill="#8a8a8a" p-id="27465"></path><path d="M291.84612692 528.45861307h557.5046575v29.78399077H291.84612692z" fill="#ED8F27" p-id="27466"></path><path d="M856.94186968 639.66613806H65.60386705s-46.35047126 14.6367188-46.35047126 102.45961678 46.35047126 104.89863905 46.35047126 104.89863905h791.33800263s-39.85287452-17.07703364-39.85287452-103.67977419 39.85287452-103.67848164 39.85287452-103.67848164z" fill="#FCE3C3" p-id="27467"></path><path d="M886.69613205 863.18113931H62.72150367l-2.70399291-0.99654808c-2.3252788-0.85695379-56.92086039-22.09855012-56.92086039-120.06012893 0-98.52900373 55.2870903-117.12218636 57.64080498-117.86539666l2.37568783-0.74967299h823.58428142v32.31349085H68.9347417c-7.39720433 3.86081589-33.52589302 22.05589631-33.52589303 86.30287134 0 64.13452409 26.07698711 84.16630333 33.92916539 88.74189361h817.35682546v32.31349086z" fill="#8a8a8a" p-id="27468"></path><path d="M176.61880366 744.50919791l-64.9669196 190.37816266 198.06360331-74.49422926z" fill="#FCE3C3" p-id="27469"></path><path d="M239.32119382 790.35040856l70.39429355 70.04272275L734.1053656 436.77748431l-66.72477351-61.95142464z" fill="#B12800" p-id="27470"></path><path d="M179.92382749 731.97027093l70.39300101 70.04272275 424.39117079-423.615647-66.72477353-61.95142464z" fill="#ED8F27" p-id="27471"></path><path d="M667.38059209 254.91586531l75.92377808-73.95265514 53.10399085-3.90863985 68.13881187 69.1314823 3.95646382 54.28666462-85.54415059 87.45064653z" fill="#228E9D" p-id="27472"></path><path d="M302.02487654 869.92173349l-125.40607288-125.41253558a11.17400513 11.17400513 0 0 1 0-15.80258955l545.76193492-545.75805731c14.5643366-14.5682142 34.31692728-22.07011423 55.09320934-20.77498952 18.06841154 1.12580202 34.86367155 9.74833392 47.66627662 22.54835389l38.45046904 38.44788395c27.88783513 27.88525005 27.89042022 73.09957897 0.00258507 100.98741412L317.82617356 869.92173349a11.17271259 11.17271259 0 0 1-15.80129702 0z m-99.57596085-133.31383036l107.47725563 107.48501087 536.80205017-536.80205019c18.53889596-18.53631088 18.53501835-48.71064863-0.00387762-67.25342222l-40.22771099-40.2238334c-8.98056537-8.98444298-20.92233905-13.93099217-33.62283353-13.93099217s-24.64226811 4.94654917-33.62671108 13.93099217L202.44891569 736.60790313z" fill="#8a8a8a" p-id="27473"></path><path d="M734.1053656 436.78653208l-124.3436053-124.34360528 52.66323483-52.66452738 124.3436053 124.34360529z" fill="#300604" p-id="27474"></path><path d="M734.1053656 453.63995638L592.89024046 312.43129392l69.53604721-69.52958449 141.20866246 141.20866243-69.52958453 69.52958452z m-107.47596308-141.20866246l107.47725562 107.47725563 35.79688515-35.79688515-107.47725562-107.47725562-35.79688515 35.79688514z" fill="#8a8a8a" p-id="27475"></path><path d="M797.03007258 321.22961122l-16.86634967-16.86634968 23.40789276-23.40401516c4.22014192-4.22401953 4.22014192-11.09645275-0.00387761-15.32047227l-11.33298752-11.33686513 16.86634969-16.86634967 11.33686511 11.33686512c13.51867203 13.52642728 13.51867203 35.52545183 0.00387764 49.05317165l-23.4117704 23.40401514zM659.10963097 370.55421618l16.86764222 16.86505714L256.18883605 807.20512539l-16.86634969-16.8663497z" fill="#8a8a8a" p-id="27476"></path><path d="M91.35384164 955.18669551L174.40985342 732.43817028l22.34671772 8.33946572-64.80664469 173.81426722 173.80909709-64.80793722 8.33300301 22.34801027z" fill="#8a8a8a" p-id="27477"></path><path d="M111.65188406 934.88736057l74.03408514-33.48711685-40.54696833-40.54826083z" fill="#300604" p-id="27478"></path><path d="M87.75024115 958.790296l53.62617685-118.57241583 64.93977628 64.93848374-118.56595313 53.63393209z m61.1513426-77.30938055l-13.34934933 29.50738728 29.50738729-13.3480568-16.15803796-16.15933048z" fill="#8a8a8a" p-id="27479"></path></svg>